<svg id="Layer_1" data-name="Layer 1" xmlns="http://www.w3.org/2000/svg" viewBox="0 0 257 95.5"><path d="M504.45,587.53a.27.27,0,0,1-.3-.3v-9h-3.1a.27.27,0,0,1-.3-.3v-1.2a.27.27,0,0,1,.3-.3h8.2a.27.27,0,0,1,.3.3v1.2a.27.27,0,0,1-.3.3h-3.1v9a.27.27,0,0,1-.3.3ZM481,583l-1.6-4.7-1.6,4.6H481Zm3.6,4.1c.1.2,0,.4-.2.4h-1.5c-.2,0-.3-.1-.4-.3l-.8-2.4h-4.5l-.8,2.4c-.1.2-.2.3-.4.3h-1.4c-.2,0-.3-.2-.2-.4l3.8-10.6c.1-.2.2-.3.4-.3h1.9c.2,0,.4.1.4.3l3.7,10.6m10.9-1.1a2.2,2.2,0,0,0,2-1.2l-2.3-2.4a2.13,2.13,0,0,0-1.4,2,1.61,1.61,0,0,0,1.7,1.6m.6-8.2a1,1,0,0,0-1.1,1.1c0,.5.3.9.8,1.5,1-.6,1.4-.9,1.4-1.5a1,1,0,0,0-1.1-1.1m6.2,9.3c.2.2.1.4-.2.4h-1.8a.76.76,0,0,1-.5-.2l-1.1-1.2a3.82,3.82,0,0,1-3.4,1.7c-2,0-3.7-1.2-3.7-3.3a3.32,3.32,0,0,0,1.3-5.4,2.84,2.84,0,0,1,3.1-2.9c1.9,0,3,1.1,3,2.7,0,1.4-1,2.2-2.1,2.8l1.6,1.7.9-1.5a.46.46,0,0,1,.5-.3h1.4c.2,0,.4.2.2.4l-1.6,2.7,2.4,2.4m-14,.4a.27.27,0,0,0,.3-.3v-9h3.1a.27.27,0,0,0,.3-.3v-1.2a.27.27,0,0,0-.3-.3h-8.2a.27.27,0,0,0-.3.3v1.2a.27.27,0,0,0,.3.3h3.1v9a.27.27,0,0,0,.3.3Zm-56.4-11.2h1.5a1.59,1.59,0,0,1,1.2.4,1.16,1.16,0,0,1,.4,1,1.5,1.5,0,0,1-.4,1.1,1.59,1.59,0,0,1-1.2.4h-.8v1.5h-.7Zm.8,2.2h.7a1.45,1.45,0,0,0,.7-.2c.2-.1.2-.3.2-.6a1.42,1.42,0,0,0-.2-.6,1.45,1.45,0,0,0-.7-.2h-.7Zm5.2.6h-.8v1.6h-.7v-4.4h1.5a1.25,1.25,0,0,1,1.1.4,1.16,1.16,0,0,1,.4,1,1.88,1.88,0,0,1-.2.8,2.65,2.65,0,0,1-.6.5l1.1,1.7h-.8Zm-.8-.7h.8a.71.71,0,0,0,.8-.8.76.76,0,0,0-.2-.5.85.85,0,0,0-.6-.2h-.8Zm3.8-2.1h2.7v.6h-2v1.2h1.6v.6h-1.6V580h2.1v.6h-2.8Zm5.3,4.4a2.41,2.41,0,0,1-1.5-.4l.2-.6a2.66,2.66,0,0,0,1.2.3,1.45,1.45,0,0,0,.7-.2c.2-.1.2-.3.2-.5a.37.37,0,0,0-.1-.3c0-.1-.1-.1-.2-.2s-.3-.1-.6-.2l-.3-.1a1.23,1.23,0,0,1-.8-.5,1.21,1.21,0,0,1,.1-1.7,1.8,1.8,0,0,1,1.1-.3,1.7,1.7,0,0,1,.7.1c.2.1.4.1.6.2l-.2.6c-.2-.1-.3-.1-.5-.2s-.4-.1-.6-.1-.5,0-.6.1a.52.52,0,0,0-.2.4.76.76,0,0,0,.2.4,1.63,1.63,0,0,0,.6.3l.3.1a4.88,4.88,0,0,1,.7.3.78.78,0,0,1,.4.4,1.08,1.08,0,0,1,.1.6,1.28,1.28,0,0,1-.4,1C447.05,580.63,446.65,580.73,446.15,580.73Zm3-4.4h2.7v.6h-2v1.2h1.6v.6h-1.6V580H452v.6h-2.8Zm4,4.4v-4.4h.7l2.1,3.2v-3.2h.7v4.4H456l-2.1-3.2v3.2Zm6-3.7h-1.4v-.7h3.5v.7h-1.4v3.7h-.7Zm3.3-.7h2.7v.6h-2v1.2h1.6v.6h-1.6V580h2.1v.6h-2.8Zm7.7,2.2a2.38,2.38,0,0,1-.3,1.2,2,2,0,0,1-.8.8,2,2,0,0,1-1.1.3h-1.5v-4.5H468a2.66,2.66,0,0,1,1.2.3,1.39,1.39,0,0,1,.7.8A1.8,1.8,0,0,1,470.15,578.53Zm-.8,0a1.25,1.25,0,0,0-.4-1.1,1.37,1.37,0,0,0-1.1-.4h-.7v3.1h.7a1.37,1.37,0,0,0,1.1-.4A1.75,1.75,0,0,0,469.35,578.53Zm-6.9,4.6h1.6a1.8,1.8,0,0,1,1.1.3,1.23,1.23,0,0,1,.4.8,1.42,1.42,0,0,1-.2.6,1,1,0,0,1-.5.4,1.63,1.63,0,0,1,.6.3,1.45,1.45,0,0,1,.2.7,1.07,1.07,0,0,1-.2.6,1,1,0,0,1-.5.4,2,2,0,0,1-.8.1h-1.8v-4.2Zm.7.6V585h.9a.7.7,0,1,0,0-1.4h-.9Zm0,1.8v1.3h1.1a.71.71,0,0,0,.5-1.2.85.85,0,0,0-.6-.2h-1Zm5,.3-1.5-2.7h.8l1.1,2.1,1.1-2.1h.8l-1.5,2.7v1.6h-.8Zm-27-82.5H437v-2.8h11.5v2.8h-4.2v11.1h-3v-11.1Zm21.5,1.8h0c0-2.9-2-4.6-5.2-4.6h-6v13.9h3V510h2.1l3,4.4h3.6l-3.4-5a4.35,4.35,0,0,0,2.9-4.3m-3.1.2a2,2,0,0,1-2.3,2h-2.8v-4h2.7c1.5,0,2.4.7,2.4,2Zm27.5,5.3h0c0-1.9-1-2.8-2.6-3.5a3.22,3.22,0,0,0,1.8-3h0c0-2.2-1.7-3.6-4.6-3.6h-6.4v13.9h6.6c3.2,0,5.2-1.3,5.2-3.8m-8.8-7.4h3c1.3,0,2,.5,2,1.4h0c0,1-.9,1.5-2.2,1.5h-2.8Zm0,5.5h3.5c1.6,0,2.3.6,2.3,1.5h0c0,1-.8,1.5-2.2,1.5h-3.6Zm23.1,3h-7.5v-2.9h6.5v-2.7h-6.5v-2.8h7.4v-2.8h-10.4v13.9h10.6v-2.7Zm10,2.9a7.14,7.14,0,0,0,5.7-2.5l-1.9-2a5,5,0,0,1-3.6,1.6,4.11,4.11,0,0,1-4-4.4h0a4.09,4.09,0,0,1,4-4.3,4.79,4.79,0,0,1,3.5,1.6l1.9-2.2a7.5,7.5,0,0,0-12.7,5.1h0a6.94,6.94,0,0,0,7.1,7.1m19.1-.2h3.2l-5.9-14H525l-5.9,14h3.1l1.3-3.1h5.9Zm-6.1-5.8,1.8-4.5,1.8,4.5Zm-113.2,25.2h3v-5.4h6.6v-2.8h-6.6v-3h7.5v-2.8h-10.5Zm16.4-5.6h6.6v-2.7h-6.5v-2.8h7.4V520h-10.5v13.9h10.6v-2.7h-7.5v-3Zm17-2.7c-2.4-.6-3-.9-3-1.8h0c0-.7.6-1.2,1.8-1.2a6.06,6.06,0,0,1,3.6,1.4l1.6-2.3a8.11,8.11,0,0,0-5.1-1.8c-2.8,0-4.9,1.7-4.9,4.2h0c0,2.8,1.8,3.5,4.6,4.2,2.3.6,2.8,1,2.8,1.8h0c0,.8-.8,1.3-2,1.3a6.3,6.3,0,0,1-4.1-1.7l-1.8,2.2A8.84,8.84,0,0,0,444,534c3,0,5.1-1.5,5.1-4.3h0c-.1-2.5-1.7-3.5-4.5-4.2m6.4-2.8h4.2v11.1h3v-11.1h4.2v-2.8H451Zm32.1,11.2,5.6-14h-3.3l-3.6,9.8-3.6-9.8h-3.4l5.6,14Zm15.6-3.2,1.3,3.1h3.2l-5.9-14h-2.8l-5.9,14h3.1l1.3-3.1Zm-2.9-7.2,1.8,4.5h-3.7Zm19.7,7.5h-6.9v-11.1h-3v13.9h10V531ZM467,569.83h3.1v-77.5H467Zm-27.4-25.7-2.2-1.7c1.4-1.9,2.7-2.9,5.2-2.9,3,0,4.8,1.7,4.8,4.3,0,2.3-1.2,3.5-3.7,5.4l-2.3,1.8h6.1v2.7h-10.2v-2.4l4.7-3.8c1.7-1.4,2.4-2.2,2.4-3.4a1.71,1.71,0,0,0-1.9-1.8C441.35,542.33,440.55,542.93,439.55,544.13Zm17.2,9.8c-3.7,0-6.2-3.1-6.2-7.2s2.5-7.2,6.2-7.2,6.2,3.1,6.2,7.2S460.45,553.93,456.75,553.93Zm0-11.7c-1.9,0-3,1.9-3,4.4s1.2,4.5,3.1,4.5,3-1.9,3-4.4S458.65,542.23,456.75,542.23Zm20.9,1.9-2.2-1.7c1.4-1.9,2.7-2.9,5.2-2.9,3,0,4.8,1.7,4.8,4.3,0,2.3-1.2,3.5-3.7,5.4l-2.3,1.8h6.1v2.7h-10.2v-2.4l4.7-3.8c1.7-1.4,2.4-2.2,2.4-3.4a1.71,1.71,0,0,0-1.9-1.8C479.45,542.33,478.65,542.93,477.65,544.13Zm14.4-4.5h2.1v14.1h-3v-11l-2.5.6-.6-2.5Zm-51.9,20.1v1.9h-1.1v-1.9l-1.8-2.9h1.2l1.1,1.9,1.2-1.9H442Zm2.8,1.9v-4.8h3.6v.9H444v1h2.3v.9H444v1h2.6v.9H443Zm8.4,0-.4-1.1h-2l-.4,1.1h-1.1l2.1-4.8h1l2.1,4.8ZM450,558l-.6,1.6h1.3Zm6.5,3.6-1-1.5h-.8v1.5h-1.1v-4.8h2.2a1.58,1.58,0,0,1,1.8,1.6h0a1.45,1.45,0,0,1-1,1.5l1.2,1.7Zm0-3.2c0-.5-.3-.7-.8-.7h-1.1v1.4h1.1a.71.71,0,0,0,.8-.7Zm4,3.3a3,3,0,0,1-2-.8l.6-.7a2,2,0,0,0,1.4.6c.4,0,.7-.2.7-.5h0c0-.3-.2-.4-1-.6-1-.2-1.6-.5-1.6-1.5h0a1.53,1.53,0,0,1,1.7-1.5,2.79,2.79,0,0,1,1.8.6l-.5.8a2.11,2.11,0,0,0-1.3-.5c-.4,0-.6.2-.6.4h0c0,.3.2.4,1,.6,1,.3,1.5.6,1.5,1.4h0C462.25,561.13,461.55,561.73,460.45,561.73Zm57.3-29.7v1.2h-.2V532h-.4v-.2h1.1v.2Zm1,1.2h-.2v-1.5h.4l.4.9.4-.9h.4v1.5H520v-1.1l-.5,1h-.1l-.5-1v1.1Z" transform="translate(-411.15 -492.33)"/><path d="M551,559.23v-2.1h5.8v7.2a4,4,0,0,1-1,3,3.54,3.54,0,0,1-2.6,1,4.59,4.59,0,0,1-3.5-1.6l1.3-1.8a3.11,3.11,0,0,0,2.1,1.1,1,1,0,0,0,.9-.4,2.14,2.14,0,0,0,.4-1.2v-5.2Z" transform="translate(-411.15 -492.33)"/><path d="M562.45,565.33a2.21,2.21,0,0,0,3.4,0,3.28,3.28,0,0,0,.6-2.1V557H569v6.3a4.78,4.78,0,0,1-1.3,3.7,5.1,5.1,0,0,1-6.8,0,5,5,0,0,1-1.4-3.7V557H562v6.2A2.14,2.14,0,0,0,562.45,565.33Z" transform="translate(-411.15 -492.33)"/><path d="M579.25,557h2.5v11.2h-2.5l-5.3-7v7h-2.5V557h2.3l5.5,7.2Z" transform="translate(-411.15 -492.33)"/><path d="M592.65,557v2.2h-5.6v2.3h5v2.1h-5v2.3h5.7v2.2h-8.2V557Z" transform="translate(-411.15 -492.33)"/><path d="M602.25,566.23a1.86,1.86,0,0,0,1.6-.7,3.61,3.61,0,0,0,.7-1.9,3.6,3.6,0,0,1-2.2.7,3.54,3.54,0,0,1-2.6-1,3.62,3.62,0,0,1-1-2.7,3.69,3.69,0,0,1,1.1-2.7,3.86,3.86,0,0,1,2.8-1,4.65,4.65,0,0,1,2.1.5,3.48,3.48,0,0,1,1.4,1.3,8.16,8.16,0,0,1,.9,4,7.66,7.66,0,0,1-.4,2.7,3.87,3.87,0,0,1-1,1.8,4.22,4.22,0,0,1-3.2,1.3,7.72,7.72,0,0,1-1.5-.2,2.81,2.81,0,0,1-1.1-.5,5.55,5.55,0,0,0-.8-.6l1.2-1.8c.1.1.2.1.3.2s.4.2.7.4A4.4,4.4,0,0,0,602.25,566.23Zm.3-4a1.55,1.55,0,0,0,1.7-1.5,1.7,1.7,0,0,0-3.4,0,1.59,1.59,0,0,0,.4,1.2A7.89,7.89,0,0,0,602.55,562.23Z" transform="translate(-411.15 -492.33)"/><path d="M613.25,564.53v-2.2H619v2.1h-5.7Z" transform="translate(-411.15 -492.33)"/><path d="M629.85,561.43a1.92,1.92,0,0,0,.4-1.2,1,1,0,0,0-.4-.9,1.09,1.09,0,0,0-.9-.4c-.7,0-1.4.5-2,1.5l-2-1.2a5.92,5.92,0,0,1,1.7-1.8,4.27,4.27,0,0,1,2.4-.6,3.66,3.66,0,0,1,2.5.9,3.1,3.1,0,0,1,1.1,2.5,3.53,3.53,0,0,1-.4,1.7,10.53,10.53,0,0,1-1.6,2l-2,2.1h4.4v2.2h-7.9v-1.9l3.3-3.4A16.68,16.68,0,0,0,629.85,561.43Z" transform="translate(-411.15 -492.33)"/><path d="M639.45,568.33a4.06,4.06,0,0,1-3.5-1.6,7,7,0,0,1-1.2-4.2,6.56,6.56,0,0,1,1.2-4.2,3.94,3.94,0,0,1,3.5-1.6,4.06,4.06,0,0,1,3.5,1.6,7,7,0,0,1,1.2,4.2,6.56,6.56,0,0,1-1.2,4.2A4.06,4.06,0,0,1,639.45,568.33Zm-1.7-8.5a5.44,5.44,0,0,0-.5,2.7,6.84,6.84,0,0,0,.5,2.7,1.72,1.72,0,0,0,1.6,1,1.62,1.62,0,0,0,1.6-1,7.54,7.54,0,0,0,0-5.4,1.62,1.62,0,0,0-1.6-1A1.9,1.9,0,0,0,637.75,559.83Z" transform="translate(-411.15 -492.33)"/><path d="M560.05,580.83h-1.6l-.3,2H560l-.4,2.2h-1.8l-.4,2.4H555l.4-2.4h-1.5l-.4,2.4h-2.4l.4-2.4H550l.4-2.2h1.5l.3-2h-1.7l.4-2.2h1.6l.4-2.6h2.4l-.4,2.6h1.4l.4-2.6h2.4l-.5,2.6h1.7Zm-4,0h-1.5l-.4,2h1.5C555.85,581.93,556,581.23,556.05,580.83Z" transform="translate(-411.15 -492.33)"/><path d="M567.25,578.43v9h-2.5v-9h-3.2v-2.2h8.8v2.2Z" transform="translate(-411.15 -492.33)"/><path d="M581.35,579.93a3.39,3.39,0,0,1-2.1,3.5l2.8,4H579l-2.5-3.6h-1.7v3.6h-2.5v-11.2h4.2a5.9,5.9,0,0,1,3.7.9A3.23,3.23,0,0,1,581.35,579.93Zm-3,1.4a1.73,1.73,0,0,0,.5-1.3,1.36,1.36,0,0,0-.5-1.2,3.42,3.42,0,0,0-1.7-.3h-1.9v3.3h1.8A4.93,4.93,0,0,0,578.35,581.33Z" transform="translate(-411.15 -492.33)"/><path d="M583.85,576.23h2.5v11.2h-2.5Z" transform="translate(-411.15 -492.33)"/><path d="M594.05,587.43h-4.9v-11.2h4.4a6,6,0,0,1,2,.3,2.72,2.72,0,0,1,1.2.7,3,3,0,0,1,.8,2,2.63,2.63,0,0,1-.8,2,1.38,1.38,0,0,0-.4.3c-.1,0-.2.1-.4.2a3.5,3.5,0,0,1,1.7.9,2.21,2.21,0,0,1,.6,1.8,3.23,3.23,0,0,1-.8,2.1A5.51,5.51,0,0,1,594.05,587.43Zm-2.4-6.7h1.2a4.87,4.87,0,0,0,1.5-.2,1,1,0,0,0,.5-1,1.1,1.1,0,0,0-.5-1,3.22,3.22,0,0,0-1.6-.2h-1.2v2.4Zm0,4.6h1.7a3.51,3.51,0,0,0,1.6-.3c.4-.2.5-.5.5-1a.92.92,0,0,0-.6-1,4.44,4.44,0,0,0-1.8-.2h-1.5v2.5Z" transform="translate(-411.15 -492.33)"/><path d="M608.25,576.23v2.2h-5.6v2.3h5v2.1h-5v2.3h5.7v2.2h-8.2v-11.1Z" transform="translate(-411.15 -492.33)"/><path d="M615.75,585.23a3.69,3.69,0,0,0,3-1.5l1.6,1.6a6,6,0,0,1-4.5,2.1,6,6,0,0,1-4.3-1.6,5.66,5.66,0,0,1-1.7-4.1,6.07,6.07,0,0,1,1.7-4.2,5.73,5.73,0,0,1,4.2-1.7,5.88,5.88,0,0,1,4.6,2.1l-1.6,1.8a3.65,3.65,0,0,0-2.9-1.5,3.58,3.58,0,0,0-2.4.9,3,3,0,0,0-1,2.5,3.49,3.49,0,0,0,.9,2.5A3.59,3.59,0,0,0,615.75,585.23Z" transform="translate(-411.15 -492.33)"/><path d="M630.25,587.43l-1-2.4h-4.7l-1,2.4h-2.7l4.8-11.2h2.4l4.8,11.2Zm-3.4-7.9-1.4,3.2h2.8Z" transform="translate(-411.15 -492.33)"/><path d="M638.45,580.63a1.92,1.92,0,0,0,.4-1.2,1,1,0,0,0-.4-.9,1.09,1.09,0,0,0-.9-.4c-.7,0-1.4.5-2,1.5l-2-1.2a5.92,5.92,0,0,1,1.7-1.8,4.27,4.27,0,0,1,2.4-.6,3.66,3.66,0,0,1,2.5.9,3.1,3.1,0,0,1,1.1,2.5,3.53,3.53,0,0,1-.4,1.7,10.53,10.53,0,0,1-1.6,2l-2,2.1h4.4v2.2h-7.9v-1.9l3.3-3.4A16.68,16.68,0,0,0,638.45,580.63Z" transform="translate(-411.15 -492.33)"/><path d="M648,587.53a4.06,4.06,0,0,1-3.5-1.6,7,7,0,0,1-1.2-4.2,6.56,6.56,0,0,1,1.2-4.2,3.94,3.94,0,0,1,3.5-1.6,4.06,4.06,0,0,1,3.5,1.6,7,7,0,0,1,1.2,4.2,6.56,6.56,0,0,1-1.2,4.2A3.94,3.94,0,0,1,648,587.53Zm-1.6-8.5a5.44,5.44,0,0,0-.5,2.7,6.84,6.84,0,0,0,.5,2.7,1.72,1.72,0,0,0,1.6,1,1.62,1.62,0,0,0,1.6-1,7.54,7.54,0,0,0,0-5.4,1.62,1.62,0,0,0-1.6-1A1.78,1.78,0,0,0,646.35,579Z" transform="translate(-411.15 -492.33)"/><path d="M659.15,580.63a1.92,1.92,0,0,0,.4-1.2,1,1,0,0,0-.4-.9,1.09,1.09,0,0,0-.9-.4c-.7,0-1.4.5-2,1.5l-2-1.2a5.92,5.92,0,0,1,1.7-1.8,4.27,4.27,0,0,1,2.4-.6,3.66,3.66,0,0,1,2.5.9,3.1,3.1,0,0,1,1.1,2.5,3.53,3.53,0,0,1-.4,1.7,10.53,10.53,0,0,1-1.6,2l-2,2.1h4.4v2.2h-7.9v-1.9l3.3-3.4A16.68,16.68,0,0,0,659.15,580.63Z" transform="translate(-411.15 -492.33)"/><path d="M663.65,576.23h4.5v11.2h-2.4v-9.1h-2.1Z" transform="translate(-411.15 -492.33)"/></svg>